<svg xmlns="http://www.w3.org/2000/svg" xmlns:xlink="http://www.w3.org/1999/xlink" contentStyleType="text/css" height="1343px" preserveAspectRatio="none" style="width:1120px;height:1343px;background:#FFFFFF;" version="1.1" viewBox="0 0 1120 1343" width="1120px" zoomAndPan="magnify"><title>Predator State Machine Diagram</title><defs/><g><text fill="#000000" font-family="sans-serif" font-size="14" font-weight="bold" lengthAdjust="spacing" textLength="228.6751" x="438.9015" y="24.9659">Predator State Machine Diagram</text><ellipse cx="451.29" cy="56.0679" fill="#222222" rx="10" ry="10" style="stroke:#222222;stroke-width:1.0;"/><g id="Idle"><rect fill="#F1F1F1" height="50" rx="12.5" ry="12.5" style="stroke:#181818;stroke-width:0.5;" width="50" x="426.29" y="145.0679"/><line style="stroke:#181818;stroke-width:0.5;" x1="426.29" x2="476.29" y1="174.1358" y2="174.1358"/><text fill="#000000" font-family="sans-serif" font-size="14" lengthAdjust="spacing" textLength="24.8639" x="438.858" y="165.0339">Idle</text></g><path d="M108.97,310.0679 L433.6051,310.0679 A12.5,12.5 0 0 1 446.1051,322.5679 L446.1051,339.1358 L96.47,339.1358 L96.47,322.5679 A12.5,12.5 0 0 1 108.97,310.0679 " fill="#F1F1F1" style="stroke:#F1F1F1;stroke-width:1.0;"/><rect fill="none" height="462.0679" rx="12.5" ry="12.5" style="stroke:#181818;stroke-width:0.5;" width="349.6351" x="96.47" y="310.0679"/><line style="stroke:#181818;stroke-width:0.5;" x1="96.47" x2="446.1051" y1="339.1358" y2="339.1358"/><text fill="#000000" font-family="sans-serif" font-size="14" lengthAdjust="spacing" textLength="49.1538" x="246.7107" y="330.0339">Moving</text><ellipse cx="210.44" cy="360.1358" fill="#222222" rx="10" ry="10" style="stroke:#222222;stroke-width:1.0;"/><g id="Moving.DecideDirection"><rect fill="#F1F1F1" height="50" rx="12.5" ry="12.5" style="stroke:#181818;stroke-width:0.5;" width="124.9716" x="147.95" y="407.1358"/><line style="stroke:#181818;stroke-width:0.5;" x1="147.95" x2="272.9216" y1="436.2038" y2="436.2038"/><text fill="#000000" font-family="sans-serif" font-size="14" lengthAdjust="spacing" textLength="104.9716" x="157.95" y="427.1018">DecideDirection</text></g><g id="Moving.Hunt"><rect fill="#F1F1F1" height="50" rx="12.5" ry="12.5" style="stroke:#181818;stroke-width:0.5;" width="52.7319" x="114.07" y="548.1358"/><line style="stroke:#181818;stroke-width:0.5;" x1="114.07" x2="166.8019" y1="577.2038" y2="577.2038"/><text fill="#000000" font-family="sans-serif" font-size="14" lengthAdjust="spacing" textLength="32.7319" x="124.07" y="568.1018">Hunt</text></g><g id="Moving.RandomMove"><rect fill="#F1F1F1" height="50" rx="12.5" ry="12.5" style="stroke:#181818;stroke-width:0.5;" width="111.5596" x="224.66" y="548.1358"/><line style="stroke:#181818;stroke-width:0.5;" x1="224.66" x2="336.2196" y1="577.2038" y2="577.2038"/><text fill="#000000" font-family="sans-serif" font-size="14" lengthAdjust="spacing" textLength="91.5596" x="234.66" y="568.1018">RandomMove</text></g><g id="Moving.MoveAction"><rect fill="#F1F1F1" height="50" rx="12.5" ry="12.5" style="stroke:#181818;stroke-width:0.5;" width="97.6297" x="161.62" y="653.1358"/><line style="stroke:#181818;stroke-width:0.5;" x1="161.62" x2="259.2497" y1="682.2038" y2="682.2038"/><text fill="#000000" font-family="sans-serif" font-size="14" lengthAdjust="spacing" textLength="77.6297" x="171.62" y="673.1018">MoveAction</text></g><ellipse cx="210.44" cy="751.1358" fill="none" rx="11" ry="11" style="stroke:#222222;stroke-width:1.0;"/><ellipse cx="210.44" cy="751.1358" fill="#222222" rx="6" ry="6" style="stroke:#222222;stroke-width:1.0;"/><!--link *start*Moving to DecideDirection--><g id="link_*start*Moving_DecideDirection"><path d="M210.44,370.5758 C210.44,379.8358 210.44,388.3258 210.44,400.8158 " fill="none" id="*start*Moving-to-DecideDirection" style="stroke:#181818;stroke-width:1.0;"/><polygon fill="#181818" points="210.44,406.8158,214.44,397.8158,210.44,401.8158,206.44,397.8158,210.44,406.8158" style="stroke:#181818;stroke-width:1.0;"/></g><!--link DecideDirection to Hunt--><g id="link_DecideDirection_Hunt"><path d="M147.45,451.6858 C137.13,457.5358 127.75,465.1758 121.44,475.1358 C107.47,497.1658 114.2146,521.8166 124.0946,542.6066 " fill="none" id="DecideDirection-to-Hunt" style="stroke:#181818;stroke-width:1.0;"/><polygon fill="#181818" points="126.67,548.0258,126.4198,538.1802,124.5239,543.5098,119.1942,541.614,126.67,548.0258" style="stroke:#181818;stroke-width:1.0;"/><text fill="#000000" font-family="sans-serif" font-size="13" lengthAdjust="spacing" textLength="156.7542" x="122.44" y="490.0328">prey within HUNT_RANGE</text><text fill="#000000" font-family="sans-serif" font-size="13" lengthAdjust="spacing" textLength="145.9251" x="127.8545" y="507.7389">getNextMoveDirection()</text><text fill="#000000" font-family="sans-serif" font-size="13" lengthAdjust="spacing" textLength="104.4551" x="148.5895" y="525.4449">directionTo(prey)</text></g><!--link DecideDirection to RandomMove--><g id="link_DecideDirection_RandomMove"><path d="M263.87,457.4858 C270.07,462.4558 275.56,468.3058 279.44,475.1358 C292.01,497.2358 291.1497,521.1084 287.4697,541.8184 " fill="none" id="DecideDirection-to-RandomMove" style="stroke:#181818;stroke-width:1.0;"/><polygon fill="#181818" points="286.42,547.7258,291.9329,539.5644,287.2948,542.8029,284.0563,538.1648,286.42,547.7258" style="stroke:#181818;stroke-width:1.0;"/><text fill="#000000" font-family="sans-serif" font-size="13" lengthAdjust="spacing" textLength="92.6381" x="316.8235" y="490.0328">no prey nearby</text><text fill="#000000" font-family="sans-serif" font-size="13" lengthAdjust="spacing" textLength="145.9251" x="290.18" y="507.7389">getNextMoveDirection()</text><text fill="#000000" font-family="sans-serif" font-size="13" lengthAdjust="spacing" textLength="106.3271" x="309.979" y="525.4449">random direction</text></g><!--link Hunt to MoveAction--><g id="link_Hunt_MoveAction"><path d="M157.03,598.5458 C168.19,614.9658 179.4693,631.5521 190.5993,647.9421 " fill="none" id="Hunt-to-MoveAction" style="stroke:#181818;stroke-width:1.0;"/><polygon fill="#181818" points="193.97,652.9058,192.2231,643.2131,191.1611,648.7694,185.6048,647.7074,193.97,652.9058" style="stroke:#181818;stroke-width:1.0;"/><text fill="#000000" font-family="sans-serif" font-size="13" lengthAdjust="spacing" textLength="41.756" x="182.71" y="631.0328">move()</text></g><!--link RandomMove to MoveAction--><g id="link_RandomMove_MoveAction"><path d="M263.85,598.5458 C252.69,614.9658 241.4107,631.5521 230.2807,647.9421 " fill="none" id="RandomMove-to-MoveAction" style="stroke:#181818;stroke-width:1.0;"/><polygon fill="#181818" points="226.91,652.9058,235.2752,647.7074,229.7189,648.7694,228.6569,643.2131,226.91,652.9058" style="stroke:#181818;stroke-width:1.0;"/><text fill="#000000" font-family="sans-serif" font-size="13" lengthAdjust="spacing" textLength="41.756" x="252.71" y="631.0328">move()</text></g><!--link MoveAction to *end*Moving--><g id="link_MoveAction_*end*Moving"><path d="M210.44,703.5658 C210.44,715.9258 210.44,724.2658 210.44,733.7358 " fill="none" id="MoveAction-to-*end*Moving" style="stroke:#181818;stroke-width:1.0;"/><polygon fill="#181818" points="210.44,739.7358,214.44,730.7358,210.44,734.7358,206.44,730.7358,210.44,739.7358" style="stroke:#181818;stroke-width:1.0;"/></g><path d="M358.28,851.1379 L674.3091,851.1379 A12.5,12.5 0 0 1 686.8091,863.6379 L686.8091,880.2058 L345.78,880.2058 L345.78,863.6379 A12.5,12.5 0 0 1 358.28,851.1379 " fill="#F1F1F1" style="stroke:#F1F1F1;stroke-width:1.0;"/><rect fill="none" height="357.0679" rx="12.5" ry="12.5" style="stroke:#181818;stroke-width:0.5;" width="341.0291" x="345.78" y="851.1379"/><line style="stroke:#181818;stroke-width:0.5;" x1="345.78" x2="686.8091" y1="880.2058" y2="880.2058"/><text fill="#000000" font-family="sans-serif" font-size="14" lengthAdjust="spacing" textLength="41.5658" x="495.5116" y="871.1039">Eating</text><ellipse cx="478.58" cy="901.2058" fill="#222222" rx="10" ry="10" style="stroke:#222222;stroke-width:1.0;"/><g id="Eating.CheckPrey"><rect fill="#F1F1F1" height="50" rx="12.5" ry="12.5" style="stroke:#181818;stroke-width:0.5;" width="88.8797" x="434.14" y="948.2058"/><line style="stroke:#181818;stroke-width:0.5;" x1="434.14" x2="523.0197" y1="977.2738" y2="977.2738"/><text fill="#000000" font-family="sans-serif" font-size="14" lengthAdjust="spacing" textLength="68.8797" x="444.14" y="968.1718">CheckPrey</text></g><g id="Eating.EatPrey"><rect fill="#F1F1F1" height="50" rx="12.5" ry="12.5" style="stroke:#181818;stroke-width:0.5;" width="69.9798" x="367.59" y="1089.2058"/><line style="stroke:#181818;stroke-width:0.5;" x1="367.59" x2="437.5698" y1="1118.2738" y2="1118.2738"/><text fill="#000000" font-family="sans-serif" font-size="14" lengthAdjust="spacing" textLength="49.9798" x="377.59" y="1109.1718">EatPrey</text></g><g id="Eating.NoPrey"><rect fill="#F1F1F1" height="50" rx="12.5" ry="12.5" style="stroke:#181818;stroke-width:0.5;" width="68.3978" x="520.38" y="1089.2058"/><line style="stroke:#181818;stroke-width:0.5;" x1="520.38" x2="588.7778" y1="1118.2738" y2="1118.2738"/><text fill="#000000" font-family="sans-serif" font-size="14" lengthAdjust="spacing" textLength="48.3978" x="530.38" y="1109.1718">NoPrey</text></g><ellipse cx="477.58" cy="1187.2058" fill="none" rx="11" ry="11" style="stroke:#222222;stroke-width:1.0;"/><ellipse cx="477.58" cy="1187.2058" fill="#222222" rx="6" ry="6" style="stroke:#222222;stroke-width:1.0;"/><!--link *start*Eating to CheckPrey--><g id="link_*start*Eating_CheckPrey"><path d="M478.58,911.6458 C478.58,920.9058 478.58,929.3958 478.58,941.8858 " fill="none" id="*start*Eating-to-CheckPrey" style="stroke:#181818;stroke-width:1.0;"/><polygon fill="#181818" points="478.58,947.8858,482.58,938.8858,478.58,942.8858,474.58,938.8858,478.58,947.8858" style="stroke:#181818;stroke-width:1.0;"/></g><!--link CheckPrey to EatPrey--><g id="link_CheckPrey_EatPrey"><path d="M433.84,979.6358 C410.86,984.9458 384.78,995.4458 370.58,1016.2058 C356.78,1036.3858 362.76,1048.0458 370.58,1071.2058 C372.69,1077.4558 372.6888,1078.6148 376.5588,1084.0948 " fill="none" id="CheckPrey-to-EatPrey" style="stroke:#181818;stroke-width:1.0;"/><polygon fill="#181818" points="380.02,1088.9958,378.0956,1079.3368,377.1357,1084.9116,371.5609,1083.9517,380.02,1088.9958" style="stroke:#181818;stroke-width:1.0;"/><text fill="#000000" font-family="sans-serif" font-size="13" lengthAdjust="spacing" textLength="122.7201" x="406.927" y="1031.1028">adjacent prey found</text><text fill="#000000" font-family="sans-serif" font-size="13" lengthAdjust="spacing" textLength="57.2911" x="439.6415" y="1048.8089">prey.die()</text><text fill="#000000" font-family="sans-serif" font-size="13" lengthAdjust="spacing" textLength="193.4142" x="371.58" y="1066.5149">energy += HUNT_ENERGY_GAIN</text></g><!--link CheckPrey to NoPrey--><g id="link_CheckPrey_NoPrey"><path d="M523.45,985.0558 C539.59,991.3558 556.13,1001.1458 565.58,1016.2058 C579.28,1038.0258 574.86,1062.4797 567.36,1083.3397 " fill="none" id="CheckPrey-to-NoPrey" style="stroke:#181818;stroke-width:1.0;"/><polygon fill="#181818" points="565.33,1088.9858,572.1391,1081.8699,567.0217,1084.2807,564.6109,1079.1633,565.33,1088.9858" style="stroke:#181818;stroke-width:1.0;"/><text fill="#000000" font-family="sans-serif" font-size="13" lengthAdjust="spacing" textLength="102.2191" x="574.59" y="1049.1028">no adjacent prey</text></g><!--link EatPrey to *end*Eating--><g id="link_EatPrey_*end*Eating"><path d="M428.39,1139.6358 C442.97,1153.4358 455.8024,1165.5914 465.5224,1174.7914 " fill="none" id="EatPrey-to-*end*Eating" style="stroke:#181818;stroke-width:1.0;"/><polygon fill="#181818" points="469.88,1178.9158,466.0933,1169.824,466.2487,1175.4788,460.5939,1175.6342,469.88,1178.9158" style="stroke:#181818;stroke-width:1.0;"/></g><!--link NoPrey to *end*Eating--><g id="link_NoPrey_*end*Eating"><path d="M528.08,1139.6358 C513.12,1153.4358 499.8695,1165.6469 489.8995,1174.8469 " fill="none" id="NoPrey-to-*end*Eating" style="stroke:#181818;stroke-width:1.0;"/><polygon fill="#181818" points="485.49,1178.9158,494.8169,1175.7521,489.1646,1175.525,489.3916,1169.8727,485.49,1178.9158" style="stroke:#181818;stroke-width:1.0;"/></g><g id="Reproducing"><rect fill="#F1F1F1" height="50" rx="12.5" ry="12.5" style="stroke:#181818;stroke-width:0.5;" width="104.3217" x="696.13" y="1287.2079"/><line style="stroke:#181818;stroke-width:0.5;" x1="696.13" x2="800.4517" y1="1316.2758" y2="1316.2758"/><text fill="#000000" font-family="sans-serif" font-size="14" lengthAdjust="spacing" textLength="84.3217" x="706.13" y="1307.1739">Reproducing</text></g><g id="Dead"><rect fill="#F1F1F1" height="50" rx="12.5" ry="12.5" style="stroke:#181818;stroke-width:0.5;" width="54.5799" x="7" y="516.1079"/><line style="stroke:#181818;stroke-width:0.5;" x1="7" x2="61.5799" y1="545.1758" y2="545.1758"/><text fill="#000000" font-family="sans-serif" font-size="14" lengthAdjust="spacing" textLength="34.5799" x="17" y="536.0739">Dead</text></g><ellipse cx="34.29" cy="1029.6779" fill="none" rx="11" ry="11" style="stroke:#222222;stroke-width:1.0;"/><ellipse cx="34.29" cy="1029.6779" fill="#222222" rx="6" ry="6" style="stroke:#222222;stroke-width:1.0;"/><!--link *start* to Idle--><g id="link_*start*_Idle"><path d="M451.29,66.2379 C451.29,83.2679 451.29,114.2979 451.29,138.9579 " fill="none" id="*start*-to-Idle" style="stroke:#181818;stroke-width:1.0;"/><polygon fill="#181818" points="451.29,144.9579,455.29,135.9579,451.29,139.9579,447.29,135.9579,451.29,144.9579" style="stroke:#181818;stroke-width:1.0;"/><text fill="#000000" font-family="sans-serif" font-size="13" lengthAdjust="spacing" textLength="46.254" x="452.29" y="110.9649">created</text></g><!--link Idle to Moving--><g id="link_Idle_Moving"><path d="M425.86,186.9279 C412.23,196.5279 396.07,209.8479 385.29,225.0679 C366.97,250.9379 353.741,274.6013 340.391,304.4313 " fill="none" id="Idle-to-Moving" style="stroke:#181818;stroke-width:1.0;"/><polygon fill="#181818" points="337.94,309.9079,345.2675,303.327,339.9825,305.3441,337.9654,300.0591,337.94,309.9079" style="stroke:#181818;stroke-width:1.0;"/><text fill="#000000" font-family="sans-serif" font-size="13" lengthAdjust="spacing" textLength="103.2461" x="386.29" y="239.9649">on tick / update()</text><text fill="#000000" font-family="sans-serif" font-size="13" lengthAdjust="spacing" textLength="93.9771" x="390.9245" y="257.6709">incrementAge()</text><text fill="#000000" font-family="sans-serif" font-size="13" lengthAdjust="spacing" textLength="41.756" x="417.035" y="275.377">move()</text></g><!--link Moving to Eating--><g id="link_Moving_Eating"><path d="M387.33,772.5679 C400.57,798.8479 411.2007,819.9694 424.0207,845.4194 " fill="none" id="Moving-to-Eating" style="stroke:#181818;stroke-width:1.0;"/><polygon fill="#181818" points="426.72,850.7779,426.2435,840.9406,424.4706,846.3125,419.0987,844.5396,426.72,850.7779" style="stroke:#181818;stroke-width:1.0;"/><text fill="#000000" font-family="sans-serif" font-size="13" lengthAdjust="spacing" textLength="27.118" x="409.46" y="817.0349">eat()</text></g><!--link Eating to Reproducing--><g id="link_Eating_Reproducing"><path d="M538.24,1208.5879 C545.97,1226.4479 556.09,1243.1479 569.29,1257.2079 C601.84,1291.8779 649.7873,1303.88 689.9573,1308.38 " fill="none" id="Eating-to-Reproducing" style="stroke:#181818;stroke-width:1.0;"/><polygon fill="#181818" points="695.92,1309.0479,687.4213,1304.0708,690.9511,1308.4913,686.5306,1312.0211,695.92,1309.0479" style="stroke:#181818;stroke-width:1.0;"/><text fill="#000000" font-family="sans-serif" font-size="13" lengthAdjust="spacing" textLength="383.7344" x="570.29" y="1253.1049">energy &gt;= REPRODUCTION_ENERGY_THRESHOLD / reproduce()</text></g><!--link Eating to Idle--><g id="link_Eating_Idle"><path d="M524.43,850.8179 C531.37,649.6579 534.66,335.6979 494.29,225.0679 C490.35,214.2679 487.1642,208.5663 479.9142,199.9163 " fill="none" id="Eating-to-Idle" style="stroke:#181818;stroke-width:1.0;"/><polygon fill="#181818" points="476.06,195.3179,478.7756,204.785,479.2718,199.1499,484.9069,199.6461,476.06,195.3179" style="stroke:#181818;stroke-width:1.0;"/><text fill="#000000" font-family="sans-serif" font-size="13" lengthAdjust="spacing" textLength="409.2663" x="529.67" y="546.5049">energy &lt; REPRODUCTION_ENERGY_THRESHOLD / nothing happens</text></g><!--link Reproducing to Idle--><g id="link_Reproducing_Idle"><path d="M800.81,1305.0379 C856.53,1297.2779 939.14,1281.8979 958.29,1257.2079 C1022.78,1174.0379 1011.38,393.5579 947.29,310.0679 C887.87,232.6579 575.2102,186.9897 482.5402,174.9697 " fill="none" id="Reproducing-to-Idle" style="stroke:#181818;stroke-width:1.0;"/><polygon fill="#181818" points="476.59,174.1979,485.0007,179.3224,481.5485,174.8411,486.0298,171.3888,476.59,174.1979" style="stroke:#181818;stroke-width:1.0;"/><text fill="#000000" font-family="sans-serif" font-size="13" lengthAdjust="spacing" textLength="110.1881" x="1002.29" y="817.0349">done reproducing</text></g><!--link Idle to Dead--><g id="link_Idle_Dead"><path d="M426.18,173.3179 C362.53,179.3679 196.53,197.4379 149.29,225.0679 C45.77,285.6479 34.4377,446.7281 33.9377,509.6781 " fill="none" id="Idle-to-Dead" style="stroke:#181818;stroke-width:1.0;"/><polygon fill="#181818" points="33.89,515.6779,37.9614,506.71,33.9297,510.6781,29.9616,506.6464,33.89,515.6779" style="stroke:#181818;stroke-width:1.0;"/><text fill="#000000" font-family="sans-serif" font-size="13" lengthAdjust="spacing" textLength="83.9541" x="205.1955" y="248.9649">at end of turn</text><text fill="#000000" font-family="sans-serif" font-size="13" lengthAdjust="spacing" textLength="193.7652" x="150.29" y="266.6709">(energy &lt;= 0 or age &gt;= maxAge)</text></g><!--link Dead to *end*--><g id="link_Dead_*end*"><path d="M34.29,566.5679 C34.29,655.4079 34.29,952.8979 34.29,1012.4779 " fill="none" id="Dead-to-*end*" style="stroke:#181818;stroke-width:1.0;"/><polygon fill="#181818" points="34.29,1018.4779,38.29,1009.4779,34.29,1013.4779,30.29,1009.4779,34.29,1018.4779" style="stroke:#181818;stroke-width:1.0;"/></g><!--SRC=[XLDDRzim3BthL_2sP4EtdOEbG50RIO3LATpqK2n3eKcChRMM34LkQmpxxwC-l3X3s_bWMnJv7lb8EkKU4AuiIkwCXMl77S8b5xNI29dYbUKDOz_UVuUpitDOItAUWR18RfAnSFONb-PHwOgkZ0Qdn3ryWgubI9nCTrff2cXGkqKLpervf2zZXqWMGtyne6SWob0eYPcoA9moEjpzOmj-gquxOcqjzl2a76KDgvjYUrSkYcM-qnMw0fyTKHpZV0PoE6pDnCTENoKekPQcyG14eqraqiZjZ_vrU1k2G9wa7r9DMk4YCimWQU4THbHlkOtiteqKOxyPIofwIyvTx0KrwIXpifxAV56ZkAVczy7wzpJ0XFyPSFcJ2sfVB7vlEYrtslz_b2eq53NQgeSFyoX-NkJbylPkkLWNB-0M9i6IcYV8mNTW7KhpjXGngZOL4ng4hJMo4wdacCdv7ChygjnaDnVRzQOOCjgkolnwjVcQqNZQ5ETb7S6b2KyuN_uBeuqVkWfgthQe3soSpWXF6bedUxnZx1sD6tSrg0C8hmzAsfs77lZUeGLN8ppLXc95B-WzYMQBhhFQOpiJeAV75IGuwPlbA7d2seDttUd9KCeSFWDjEA_GozFmPzf6ceuGbgJz0m00]--></g></svg>