<svg xmlns="http://www.w3.org/2000/svg" xmlns:xlink="http://www.w3.org/1999/xlink" contentStyleType="text/css" data-diagram-type="STATE" height="1162px" preserveAspectRatio="none" style="width:731px;height:1162px;background:#FFFFFF;" version="1.1" viewBox="0 0 731 1162" width="731px" zoomAndPan="magnify"><title>Predator State Machine Diagram</title><defs/><g><g class="title" data-source-line="1"><text fill="#000000" font-family="sans-serif" font-size="14" font-weight="bold" lengthAdjust="spacing" textLength="228.6751" x="244.2305" y="24.9659">Predator State Machine Diagram</text></g><path d="M273.65,47.0679 L598.2851,47.0679 A12.5,12.5 0 0 1 610.7851,59.5679 L610.7851,76.1358 L261.15,76.1358 L261.15,59.5679 A12.5,12.5 0 0 1 273.65,47.0679" fill="#F1F1F1"/><rect fill="none" height="347.0679" rx="12.5" ry="12.5" style="stroke:#181818;stroke-width:0.5;" width="349.6351" x="261.15" y="47.0679"/><line style="stroke:#181818;stroke-width:0.5;" x1="261.15" x2="610.7851" y1="76.1358" y2="76.1358"/><text fill="#000000" font-family="sans-serif" font-size="14" lengthAdjust="spacing" textLength="49.1538" x="411.3907" y="67.0339">Moving</text><g id="Moving.DecideDirection"><rect fill="#F1F1F1" height="50" rx="12.5" ry="12.5" style="stroke:#181818;stroke-width:0.5;" width="124.9716" x="312.63" y="88.1358"/><line style="stroke:#181818;stroke-width:0.5;" x1="312.63" x2="437.6016" y1="117.2038" y2="117.2038"/><text fill="#000000" font-family="sans-serif" font-size="14" lengthAdjust="spacing" textLength="104.9716" x="322.63" y="108.1018">DecideDirection</text></g><g id="Moving.Hunt"><rect fill="#F1F1F1" height="50" rx="12.5" ry="12.5" style="stroke:#181818;stroke-width:0.5;" width="52.7319" x="278.75" y="229.1358"/><line style="stroke:#181818;stroke-width:0.5;" x1="278.75" x2="331.4819" y1="258.2038" y2="258.2038"/><text fill="#000000" font-family="sans-serif" font-size="14" lengthAdjust="spacing" textLength="32.7319" x="288.75" y="249.1018">Hunt</text></g><g id="Moving.RandomMove"><rect fill="#F1F1F1" height="50" rx="12.5" ry="12.5" style="stroke:#181818;stroke-width:0.5;" width="111.5596" x="389.34" y="229.1358"/><line style="stroke:#181818;stroke-width:0.5;" x1="389.34" x2="500.8996" y1="258.2038" y2="258.2038"/><text fill="#000000" font-family="sans-serif" font-size="14" lengthAdjust="spacing" textLength="91.5596" x="399.34" y="249.1018">RandomMove</text></g><g id="Moving.MoveAction"><rect fill="#F1F1F1" height="50" rx="12.5" ry="12.5" style="stroke:#181818;stroke-width:0.5;" width="97.6297" x="326.3" y="334.1358"/><line style="stroke:#181818;stroke-width:0.5;" x1="326.3" x2="423.9297" y1="363.2038" y2="363.2038"/><text fill="#000000" font-family="sans-serif" font-size="14" lengthAdjust="spacing" textLength="77.6297" x="336.3" y="354.1018">MoveAction</text></g><!--link DecideDirection to Hunt--><g class="link" data-entity-1="DecideDirection" data-entity-2="Hunt" data-source-line="6" data-uid="lnk6" id="link_DecideDirection_Hunt"><path d="M312.13,132.6858 C301.81,138.5358 292.43,146.1758 286.12,156.1358 C272.15,178.1658 278.8946,202.8166 288.7746,223.6066" fill="none" id="DecideDirection-to-Hunt" style="stroke:#181818;stroke-width:1;"/><polygon fill="#181818" points="291.35,229.0258,291.0998,219.1802,289.2039,224.5098,283.8742,222.614,291.35,229.0258" style="stroke:#181818;stroke-width:1;"/><text fill="#000000" font-family="sans-serif" font-size="13" lengthAdjust="spacing" textLength="156.7542" x="287.12" y="171.0328">prey within HUNT_RANGE</text><text fill="#000000" font-family="sans-serif" font-size="13" lengthAdjust="spacing" textLength="145.9251" x="292.5345" y="188.7389">getNextMoveDirection()</text><text fill="#000000" font-family="sans-serif" font-size="13" lengthAdjust="spacing" textLength="104.4551" x="313.2695" y="206.4449">directionTo(prey)</text></g><!--link DecideDirection to RandomMove--><g class="link" data-entity-1="DecideDirection" data-entity-2="RandomMove" data-source-line="7" data-uid="lnk8" id="link_DecideDirection_RandomMove"><path d="M428.55,138.4858 C434.75,143.4558 440.24,149.3058 444.12,156.1358 C456.69,178.2358 455.8297,202.1084 452.1497,222.8184" fill="none" id="DecideDirection-to-RandomMove" style="stroke:#181818;stroke-width:1;"/><polygon fill="#181818" points="451.1,228.7258,456.6129,220.5644,451.9748,223.8029,448.7363,219.1648,451.1,228.7258" style="stroke:#181818;stroke-width:1;"/><text fill="#000000" font-family="sans-serif" font-size="13" lengthAdjust="spacing" textLength="92.6381" x="481.5035" y="171.0328">no prey nearby</text><text fill="#000000" font-family="sans-serif" font-size="13" lengthAdjust="spacing" textLength="145.9251" x="454.86" y="188.7389">getNextMoveDirection()</text><text fill="#000000" font-family="sans-serif" font-size="13" lengthAdjust="spacing" textLength="106.3271" x="474.659" y="206.4449">random direction</text></g><!--link Hunt to MoveAction--><g class="link" data-entity-1="Hunt" data-entity-2="MoveAction" data-source-line="8" data-uid="lnk10" id="link_Hunt_MoveAction"><path d="M321.71,279.5458 C332.87,295.9658 344.1493,312.5521 355.2793,328.9421" fill="none" id="Hunt-to-MoveAction" style="stroke:#181818;stroke-width:1;"/><polygon fill="#181818" points="358.65,333.9058,356.9031,324.2131,355.8411,329.7694,350.2848,328.7074,358.65,333.9058" style="stroke:#181818;stroke-width:1;"/><text fill="#000000" font-family="sans-serif" font-size="13" lengthAdjust="spacing" textLength="41.756" x="347.39" y="312.0328">move()</text></g><!--link RandomMove to MoveAction--><g class="link" data-entity-1="RandomMove" data-entity-2="MoveAction" data-source-line="9" data-uid="lnk11" id="link_RandomMove_MoveAction"><path d="M428.53,279.5458 C417.37,295.9658 406.0907,312.5521 394.9607,328.9421" fill="none" id="RandomMove-to-MoveAction" style="stroke:#181818;stroke-width:1;"/><polygon fill="#181818" points="391.59,333.9058,399.9552,328.7074,394.3989,329.7694,393.3369,324.2131,391.59,333.9058" style="stroke:#181818;stroke-width:1;"/><text fill="#000000" font-family="sans-serif" font-size="13" lengthAdjust="spacing" textLength="41.756" x="417.39" y="312.0328">move()</text></g><path d="M47.15,473.1379 L398.7791,473.1379 A12.5,12.5 0 0 1 411.2791,485.6379 L411.2791,502.2058 L34.65,502.2058 L34.65,485.6379 A12.5,12.5 0 0 1 47.15,473.1379" fill="#F1F1F1"/><rect fill="none" height="242.0679" rx="12.5" ry="12.5" style="stroke:#181818;stroke-width:0.5;" width="376.6291" x="34.65" y="473.1379"/><line style="stroke:#181818;stroke-width:0.5;" x1="34.65" x2="411.2791" y1="502.2058" y2="502.2058"/><text fill="#000000" font-family="sans-serif" font-size="14" lengthAdjust="spacing" textLength="41.5658" x="202.1816" y="493.1039">Eating</text><g id="Eating.CheckPrey"><rect fill="#F1F1F1" height="50" rx="12.5" ry="12.5" style="stroke:#181818;stroke-width:0.5;" width="88.8797" x="146.2" y="514.2058"/><line style="stroke:#181818;stroke-width:0.5;" x1="146.2" x2="235.0797" y1="543.2738" y2="543.2738"/><text fill="#000000" font-family="sans-serif" font-size="14" lengthAdjust="spacing" textLength="68.8797" x="156.2" y="534.1718">CheckPrey</text></g><g id="Eating.EatPrey"><rect fill="#F1F1F1" height="50" rx="12.5" ry="12.5" style="stroke:#181818;stroke-width:0.5;" width="69.9798" x="46.65" y="655.2058"/><line style="stroke:#181818;stroke-width:0.5;" x1="46.65" x2="116.6298" y1="684.2738" y2="684.2738"/><text fill="#000000" font-family="sans-serif" font-size="14" lengthAdjust="spacing" textLength="49.9798" x="56.65" y="675.1718">EatPrey</text></g><g id="Eating.NoPrey"><rect fill="#F1F1F1" height="50" rx="12.5" ry="12.5" style="stroke:#181818;stroke-width:0.5;" width="68.3978" x="265.44" y="655.2058"/><line style="stroke:#181818;stroke-width:0.5;" x1="265.44" x2="333.8378" y1="684.2738" y2="684.2738"/><text fill="#000000" font-family="sans-serif" font-size="14" lengthAdjust="spacing" textLength="48.3978" x="275.44" y="675.1718">NoPrey</text></g><!--link CheckPrey to EatPrey--><g class="link" data-entity-1="CheckPrey" data-entity-2="EatPrey" data-source-line="15" data-uid="lnk15" id="link_CheckPrey_EatPrey"><path d="M145.7,545.7658 C122.82,551.1058 96.89,561.6058 82.64,582.2058 C67.98,603.3958 69.2689,628.0314 73.6589,649.1514" fill="none" id="CheckPrey-to-EatPrey" style="stroke:#181818;stroke-width:1;"/><polygon fill="#181818" points="74.88,655.0258,76.9647,645.4001,73.8625,650.1305,69.1321,647.0282,74.88,655.0258" style="stroke:#181818;stroke-width:1;"/><text fill="#000000" font-family="sans-serif" font-size="13" lengthAdjust="spacing" textLength="122.7201" x="118.987" y="597.1028">adjacent prey found</text><text fill="#000000" font-family="sans-serif" font-size="13" lengthAdjust="spacing" textLength="57.2911" x="151.7015" y="614.8089">prey.die()</text><text fill="#000000" font-family="sans-serif" font-size="13" lengthAdjust="spacing" textLength="193.4142" x="83.64" y="632.5149">energy += HUNT_ENERGY_GAIN</text></g><!--link CheckPrey to NoPrey--><g class="link" data-entity-1="CheckPrey" data-entity-2="NoPrey" data-source-line="16" data-uid="lnk17" id="link_CheckPrey_NoPrey"><path d="M235.2,552.7958 C250.7,559.2458 266.88,568.6858 277.64,582.2058 C294.09,602.8858 298.426,627.4935 299.506,648.7835" fill="none" id="CheckPrey-to-NoPrey" style="stroke:#181818;stroke-width:1;"/><polygon fill="#181818" points="299.81,654.7758,303.3489,645.5847,299.5567,649.7823,295.3592,645.99,299.81,654.7758" style="stroke:#181818;stroke-width:1;"/><text fill="#000000" font-family="sans-serif" font-size="13" lengthAdjust="spacing" textLength="102.2191" x="299.06" y="615.1028">no adjacent prey</text></g><g id="Idle"><rect fill="#F1F1F1" height="50" rx="12.5" ry="12.5" style="stroke:#181818;stroke-width:0.5;" width="50" x="487.97" y="959.2079"/><line style="stroke:#181818;stroke-width:0.5;" x1="487.97" x2="537.97" y1="988.2758" y2="988.2758"/><text fill="#000000" font-family="sans-serif" font-size="14" lengthAdjust="spacing" textLength="24.8639" x="500.538" y="979.1739">Idle</text></g><g id="Reproducing"><rect fill="#F1F1F1" height="50" rx="12.5" ry="12.5" style="stroke:#181818;stroke-width:0.5;" width="104.3217" x="475.81" y="830.2079"/><line style="stroke:#181818;stroke-width:0.5;" x1="475.81" x2="580.1317" y1="859.2758" y2="859.2758"/><text fill="#000000" font-family="sans-serif" font-size="14" lengthAdjust="spacing" textLength="84.3217" x="485.81" y="850.1739">Reproducing</text></g><g id="Dead"><rect fill="#F1F1F1" height="50" rx="12.5" ry="12.5" style="stroke:#181818;stroke-width:0.5;" width="54.5799" x="485.68" y="1106.2079"/><line style="stroke:#181818;stroke-width:0.5;" x1="485.68" x2="540.2599" y1="1135.2758" y2="1135.2758"/><text fill="#000000" font-family="sans-serif" font-size="14" lengthAdjust="spacing" textLength="34.5799" x="495.68" y="1126.1739">Dead</text></g><!--link Idle to Moving--><g class="link" data-entity-1="Idle" data-entity-2="Moving" data-source-line="3" data-uid="lnk3" id="link_Idle_Moving"><path d="M538.4,979.0979 C565.42,973.2179 606.83,959.5579 625.97,929.2079 C630.47,922.0679 626.4,918.6379 625.97,910.2079 C622.18,836.5879 624.4,817.2979 608.97,745.2079 C583.39,625.7279 542.3758,500.8847 505.6058,400.0647" fill="none" id="Idle-to-Moving" style="stroke:#181818;stroke-width:1;"/><polygon fill="#181818" points="503.55,394.4279,502.8758,404.2537,505.2632,399.1253,510.3916,401.5126,503.55,394.4279" style="stroke:#181818;stroke-width:1;"/><text fill="#000000" font-family="sans-serif" font-size="13" lengthAdjust="spacing" textLength="103.2461" x="619.89" y="760.1049">on tick / update()</text><text fill="#000000" font-family="sans-serif" font-size="13" lengthAdjust="spacing" textLength="93.9771" x="624.5245" y="777.8109">incrementAge()</text><text fill="#000000" font-family="sans-serif" font-size="13" lengthAdjust="spacing" textLength="41.756" x="650.635" y="795.517">move()</text></g><!--link Moving to Eating--><g class="link" data-entity-1="Moving" data-entity-2="Eating" data-source-line="12" data-uid="lnk12" id="link_Moving_Eating"><path d="M336.79,394.6079 C321.65,421.0279 309.2942,442.5827 294.9842,467.5427" fill="none" id="Moving-to-Eating" style="stroke:#181818;stroke-width:1;"/><polygon fill="#181818" points="292,472.7479,299.9465,466.9296,294.4869,468.4102,293.0062,462.9506,292,472.7479" style="stroke:#181818;stroke-width:1;"/><text fill="#000000" font-family="sans-serif" font-size="13" lengthAdjust="spacing" textLength="27.118" x="317.71" y="439.0349">eat()</text></g><!--link Eating to Reproducing--><g class="link" data-entity-1="Eating" data-entity-2="Reproducing" data-source-line="19" data-uid="lnk19" id="link_Eating_Reproducing"><path d="M194.04,715.6279 C193.45,746.3279 199.71,777.1279 219.97,800.2079 C253.82,838.7879 398.8,819.3779 448.97,830.2079 C457.65,832.0879 461.0009,832.8096 469.8209,835.3296" fill="none" id="Eating-to-Reproducing" style="stroke:#181818;stroke-width:1;"/><polygon fill="#181818" points="475.59,836.9779,468.0352,830.6593,470.7824,835.6043,465.8374,838.3515,475.59,836.9779" style="stroke:#181818;stroke-width:1;"/><text fill="#000000" font-family="sans-serif" font-size="13" lengthAdjust="spacing" textLength="383.7344" x="220.97" y="778.1049">energy &gt;= REPRODUCTION_ENERGY_THRESHOLD / reproduce()</text></g><!--link Eating to Idle--><g class="link" data-entity-1="Eating" data-entity-2="Idle" data-source-line="20" data-uid="lnk20" id="link_Eating_Idle"><path d="M80.44,715.3679 C35.02,767.9679 6,829.1979 46.97,880.2079 C103.26,950.2979 392.964,975.158 481.754,981.238" fill="none" id="Eating-to-Idle" style="stroke:#181818;stroke-width:1;"/><polygon fill="#181818" points="487.74,981.6479,479.0343,977.0424,482.7517,981.3063,478.4878,985.0237,487.74,981.6479" style="stroke:#181818;stroke-width:1;"/><text fill="#000000" font-family="sans-serif" font-size="13" lengthAdjust="spacing" textLength="409.2663" x="47.97" y="860.6049">energy &lt; REPRODUCTION_ENERGY_THRESHOLD / nothing happens</text></g><!--link Reproducing to Idle--><g class="link" data-entity-1="Reproducing" data-entity-2="Idle" data-source-line="21" data-uid="lnk21" id="link_Reproducing_Idle"><path d="M518.01,880.5179 C514.77,889.6679 511.58,900.2579 509.97,910.2079 C507.37,926.2379 507.5329,938.5167 508.9329,952.7567" fill="none" id="Reproducing-to-Idle" style="stroke:#181818;stroke-width:1;"/><polygon fill="#181818" points="509.52,958.7279,512.6202,949.3797,509.0308,953.7519,504.6586,950.1625,509.52,958.7279" style="stroke:#181818;stroke-width:1;"/><text fill="#000000" font-family="sans-serif" font-size="13" lengthAdjust="spacing" textLength="110.1881" x="510.97" y="925.1049">done reproducing</text></g><!--link Idle to Dead--><g class="link" data-entity-1="Idle" data-entity-2="Dead" data-source-line="24" data-uid="lnk23" id="link_Idle_Dead"><path d="M512.97,1009.4779 C512.97,1036.2479 512.97,1073.0579 512.97,1099.8579" fill="none" id="Idle-to-Dead" style="stroke:#181818;stroke-width:1;"/><polygon fill="#181818" points="512.97,1105.8579,516.97,1096.8579,512.97,1100.8579,508.97,1096.8579,512.97,1105.8579" style="stroke:#181818;stroke-width:1;"/><text fill="#000000" font-family="sans-serif" font-size="13" lengthAdjust="spacing" textLength="83.9541" x="568.8755" y="1054.1049">at end of turn</text><text fill="#000000" font-family="sans-serif" font-size="13" lengthAdjust="spacing" textLength="193.7652" x="513.97" y="1071.8109">(energy &lt;= 0 or age &gt;= maxAge)</text></g><!--SRC=[XPF1QkCm48RlUegvRSBIxfv3KmYrIG9R9xZfOI5GjDB4rhQMZ39kQvQ-UqUMqgImeJxOaZpp_QDV8pBqXB3sg2Kv3tSa2U5MgjfOXCp8oij6YANce8kBQxXrpyPMC05dWOnwX1_GjPoAe_7M6giyDcXfLWtpnZtpLuXzXCRKVmBuoL0PZPdngCWmAx0NdIKcjnvxU3745S3YljWybBDYdczjXLJWAp7cc1TKz66oSQEGEpuhK4ghNHC0B6DTLB8e_P_-FDuFIV2XCj27KfCVE8iA4qZx3G4dKkV2teH8beI8N58q5YKTFKkhqRER6jNZEjIS4eRn1AJ-AnMx7lUpSvtLMnl6bzeCvu0MVTN3zsdqCo_oSlxxOJvR5l_X5YvXsQ1Fv51mgcSm4rllTATIrL7YUWfblYvNsVtDPhag3bARHPdVBLQ_CcuNd_A21IUueSC-E5TVOgmB3L91BTiMxLwSbdF2quxRs1__2V6DMqDI3MOFAcmSDVVoKmzoH-Y1QeINsd6kwXM_Ht7P8tNU1ZQv0Jq-NWd6wN0AnCKpQmSXT6j7XwrCuIVmpP8L1diQ-SgtOopU0G00]--></g></svg>