<svg xmlns="http://www.w3.org/2000/svg" xmlns:xlink="http://www.w3.org/1999/xlink" contentStyleType="text/css" height="1597px" preserveAspectRatio="none" style="width:1682px;height:1597px;background:#FFFFFF;" version="1.1" viewBox="0 0 1682 1597" width="1682px" zoomAndPan="magnify"><title>Sequence Diagram</title><defs/><g><text fill="#000000" font-family="sans-serif" font-size="14" font-weight="bold" lengthAdjust="spacing" textLength="130.6615" x="777.5939" y="29.9659">Sequence Diagram</text><rect fill="#FFFFFF" height="1315.4984" style="stroke:#181818;stroke-width:1.0;" width="10" x="249.7501" y="189.5479"/><rect fill="#FFFFFF" height="1283.7924" style="stroke:#181818;stroke-width:1.0;" width="10" x="637.6754" y="221.2539"/><rect fill="#FFFFFF" height="202.2361" style="stroke:#181818;stroke-width:1.0;" width="10" x="991.5667" y="316.3719"/><rect fill="#FFFFFF" height="819.9082" style="stroke:#181818;stroke-width:1.0;" width="10" x="991.5667" y="618.7261"/><rect fill="none" height="83.118" style="stroke:#000000;stroke-width:1.5;" width="717.3252" x="572.2866" y="331.3719"/><rect fill="none" height="83.118" style="stroke:#000000;stroke-width:1.5;" width="879.3713" x="572.2866" y="428.49"/><rect fill="none" height="797.9082" style="stroke:#000000;stroke-width:1.5;" width="1104.5626" x="572.2866" y="633.7261"/><rect fill="none" height="700.7901" style="stroke:#000000;stroke-width:1.5;" width="727.0295" x="939.8198" y="692.1381"/><rect fill="none" height="541.9842" style="stroke:#000000;stroke-width:1.5;" width="619.0524" x="949.8198" y="763.5501"/><rect fill="none" height="113.8241" style="stroke:#000000;stroke-width:1.5;" width="599.0524" x="959.8198" y="915.0802"/><rect fill="none" height="113.8241" style="stroke:#000000;stroke-width:1.5;" width="450.8792" x="959.8198" y="1184.7103"/><rect fill="none" height="51.412" style="stroke:#000000;stroke-width:1.5;" width="703.0642" x="10" y="1445.6343"/><line style="stroke:#181818;stroke-width:0.5;stroke-dasharray:5.0,5.0;" x1="38" x2="38" y1="124.1358" y2="1514.0463"/><line style="stroke:#181818;stroke-width:0.5;stroke-dasharray:5.0,5.0;" x1="127.4211" x2="127.4211" y1="124.1358" y2="1514.0463"/><line style="stroke:#181818;stroke-width:0.5;stroke-dasharray:5.0,5.0;" x1="253.9522" x2="253.9522" y1="124.1358" y2="1514.0463"/><line style="stroke:#181818;stroke-width:0.5;stroke-dasharray:5.0,5.0;" x1="642.2866" x2="642.2866" y1="124.1358" y2="1514.0463"/><line style="stroke:#181818;stroke-width:0.5;stroke-dasharray:5.0,5.0;" x1="995.8198" x2="995.8198" y1="124.1358" y2="1514.0463"/><line style="stroke:#181818;stroke-width:0.5;stroke-dasharray:5.0,5.0;" x1="1257.324" x2="1257.324" y1="124.1358" y2="1514.0463"/><line style="stroke:#181818;stroke-width:0.5;stroke-dasharray:5.0,5.0;" x1="1404.7401" x2="1404.7401" y1="124.1358" y2="1514.0463"/><line style="stroke:#181818;stroke-width:0.5;stroke-dasharray:5.0,5.0;" x1="1552.9892" x2="1552.9892" y1="124.1358" y2="1514.0463"/><text fill="#000000" font-family="sans-serif" font-size="14" lengthAdjust="spacing" textLength="30.6179" x="20" y="120.0339">User</text><ellipse cx="38.3089" cy="53.5679" fill="#E2E2F0" rx="8" ry="8" style="stroke:#181818;stroke-width:0.5;"/><path d="M38.3089,61.5679 L38.3089,88.5679 M25.3089,69.5679 L51.3089,69.5679 M38.3089,88.5679 L25.3089,103.5679 M38.3089,88.5679 L51.3089,103.5679 " fill="none" style="stroke:#181818;stroke-width:0.5;"/><text fill="#000000" font-family="sans-serif" font-size="14" lengthAdjust="spacing" textLength="30.6179" x="20" y="1528.0122">User</text><ellipse cx="38.3089" cy="1540.6142" fill="#E2E2F0" rx="8" ry="8" style="stroke:#181818;stroke-width:0.5;"/><path d="M38.3089,1548.6142 L38.3089,1575.6142 M25.3089,1556.6142 L51.3089,1556.6142 M38.3089,1575.6142 L25.3089,1590.6142 M38.3089,1575.6142 L51.3089,1590.6142 " fill="none" style="stroke:#181818;stroke-width:0.5;"/><rect fill="#E2E2F0" height="33.0679" rx="2.5" ry="2.5" style="stroke:#181818;stroke-width:0.5;" width="46.8159" x="104.4211" y="90.0679"/><text fill="#000000" font-family="sans-serif" font-size="14" lengthAdjust="spacing" textLength="32.8159" x="111.4211" y="112.0339">Main</text><rect fill="#E2E2F0" height="33.0679" rx="2.5" ry="2.5" style="stroke:#181818;stroke-width:0.5;" width="46.8159" x="104.4211" y="1513.0463"/><text fill="#000000" font-family="sans-serif" font-size="14" lengthAdjust="spacing" textLength="32.8159" x="111.4211" y="1535.0122">Main</text><rect fill="#E2E2F0" height="33.0679" rx="2.5" ry="2.5" style="stroke:#181818;stroke-width:0.5;" width="71.5958" x="218.9522" y="90.0679"/><text fill="#000000" font-family="sans-serif" font-size="14" lengthAdjust="spacing" textLength="57.5958" x="225.9522" y="112.0339">StartApp</text><rect fill="#E2E2F0" height="33.0679" rx="2.5" ry="2.5" style="stroke:#181818;stroke-width:0.5;" width="71.5958" x="218.9522" y="1513.0463"/><text fill="#000000" font-family="sans-serif" font-size="14" lengthAdjust="spacing" textLength="57.5958" x="225.9522" y="1535.0122">StartApp</text><rect fill="#E2E2F0" height="33.0679" rx="2.5" ry="2.5" style="stroke:#181818;stroke-width:0.5;" width="120.7776" x="582.2866" y="90.0679"/><text fill="#000000" font-family="sans-serif" font-size="14" lengthAdjust="spacing" textLength="106.7776" x="589.2866" y="112.0339">SimulationPanel</text><rect fill="#E2E2F0" height="33.0679" rx="2.5" ry="2.5" style="stroke:#181818;stroke-width:0.5;" width="120.7776" x="582.2866" y="1513.0463"/><text fill="#000000" font-family="sans-serif" font-size="14" lengthAdjust="spacing" textLength="106.7776" x="589.2866" y="1535.0122">SimulationPanel</text><rect fill="#E2E2F0" height="33.0679" rx="2.5" ry="2.5" style="stroke:#181818;stroke-width:0.5;" width="53.4939" x="969.8198" y="90.0679"/><text fill="#000000" font-family="sans-serif" font-size="14" lengthAdjust="spacing" textLength="39.4939" x="976.8198" y="112.0339">World</text><rect fill="#E2E2F0" height="33.0679" rx="2.5" ry="2.5" style="stroke:#181818;stroke-width:0.5;" width="53.4939" x="969.8198" y="1513.0463"/><text fill="#000000" font-family="sans-serif" font-size="14" lengthAdjust="spacing" textLength="39.4939" x="976.8198" y="1535.0122">World</text><rect fill="#E2E2F0" height="33.0679" rx="2.5" ry="2.5" style="stroke:#181818;stroke-width:0.5;" width="43.2879" x="1236.324" y="90.0679"/><text fill="#000000" font-family="sans-serif" font-size="14" lengthAdjust="spacing" textLength="29.2879" x="1243.324" y="112.0339">Prey</text><rect fill="#E2E2F0" height="33.0679" rx="2.5" ry="2.5" style="stroke:#181818;stroke-width:0.5;" width="43.2879" x="1236.324" y="1513.0463"/><text fill="#000000" font-family="sans-serif" font-size="14" lengthAdjust="spacing" textLength="29.2879" x="1243.324" y="1535.0122">Prey</text><rect fill="#E2E2F0" height="33.0679" rx="2.5" ry="2.5" style="stroke:#181818;stroke-width:0.5;" width="71.9178" x="1369.7401" y="90.0679"/><text fill="#000000" font-family="sans-serif" font-size="14" lengthAdjust="spacing" textLength="57.9178" x="1376.7401" y="112.0339">Predator</text><rect fill="#E2E2F0" height="33.0679" rx="2.5" ry="2.5" style="stroke:#181818;stroke-width:0.5;" width="71.9178" x="1369.7401" y="1513.0463"/><text fill="#000000" font-family="sans-serif" font-size="14" lengthAdjust="spacing" textLength="57.9178" x="1376.7401" y="1535.0122">Predator</text><rect fill="#E2E2F0" height="33.0679" rx="2.5" ry="2.5" style="stroke:#181818;stroke-width:0.5;" width="59.7658" x="1523.9892" y="90.0679"/><text fill="#000000" font-family="sans-serif" font-size="14" lengthAdjust="spacing" textLength="45.7658" x="1530.9892" y="112.0339">Animal</text><rect fill="#E2E2F0" height="33.0679" rx="2.5" ry="2.5" style="stroke:#181818;stroke-width:0.5;" width="59.7658" x="1523.9892" y="1513.0463"/><text fill="#000000" font-family="sans-serif" font-size="14" lengthAdjust="spacing" textLength="45.7658" x="1530.9892" y="1535.0122">Animal</text><rect fill="#FFFFFF" height="1315.4984" style="stroke:#181818;stroke-width:1.0;" width="10" x="249.7501" y="189.5479"/><rect fill="#FFFFFF" height="1283.7924" style="stroke:#181818;stroke-width:1.0;" width="10" x="637.6754" y="221.2539"/><rect fill="#FFFFFF" height="202.2361" style="stroke:#181818;stroke-width:1.0;" width="10" x="991.5667" y="316.3719"/><rect fill="#FFFFFF" height="819.9082" style="stroke:#181818;stroke-width:1.0;" width="10" x="991.5667" y="618.7261"/><polygon fill="#181818" points="115.829,153.8419,125.829,157.8419,115.829,161.8419,119.829,157.8419" style="stroke:#181818;stroke-width:1.0;"/><line style="stroke:#181818;stroke-width:1.0;" x1="38.3089" x2="121.829" y1="157.8419" y2="157.8419"/><text fill="#000000" font-family="sans-serif" font-size="13" lengthAdjust="spacing" textLength="65.5201" x="45.3089" y="152.0328">main(args)</text><polygon fill="#181818" points="237.7501,185.5479,247.7501,189.5479,237.7501,193.5479,241.7501,189.5479" style="stroke:#181818;stroke-width:1.0;"/><line style="stroke:#181818;stroke-width:1.0;" x1="127.829" x2="243.7501" y1="189.5479" y2="189.5479"/><text fill="#000000" font-family="sans-serif" font-size="13" lengthAdjust="spacing" textLength="102.9211" x="134.829" y="183.7389">create StartApp()</text><polygon fill="#181818" points="625.6754,217.2539,635.6754,221.2539,625.6754,225.2539,629.6754,221.2539" style="stroke:#181818;stroke-width:1.0;"/><line style="stroke:#181818;stroke-width:1.0;" x1="259.7501" x2="631.6754" y1="221.2539" y2="221.2539"/><text fill="#000000" font-family="sans-serif" font-size="13" lengthAdjust="spacing" textLength="170.8982" x="266.7501" y="215.4449">create SimulationPanel(this)</text><polygon fill="#181818" points="237.7501,248.9599,247.7501,252.9599,237.7501,256.9599,241.7501,252.9599" style="stroke:#181818;stroke-width:1.0;"/><line style="stroke:#181818;stroke-width:1.0;" x1="38.3089" x2="243.7501" y1="252.9599" y2="252.9599"/><text fill="#000000" font-family="sans-serif" font-size="13" lengthAdjust="spacing" textLength="137.9561" x="45.3089" y="247.1509">click "Start Simulation"</text><polygon fill="#181818" points="625.6754,280.6659,635.6754,284.6659,625.6754,288.6659,629.6754,284.6659" style="stroke:#181818;stroke-width:1.0;"/><line style="stroke:#181818;stroke-width:1.0;" x1="259.7501" x2="631.6754" y1="284.6659" y2="284.6659"/><text fill="#000000" font-family="sans-serif" font-size="13" lengthAdjust="spacing" textLength="353.9253" x="266.7501" y="278.8569">setSimulationParameters(size, preyCount, predatorCount)</text><polygon fill="#181818" points="979.5667,312.3719,989.5667,316.3719,979.5667,320.3719,983.5667,316.3719" style="stroke:#181818;stroke-width:1.0;"/><line style="stroke:#181818;stroke-width:1.0;" x1="647.6754" x2="985.5667" y1="316.3719" y2="316.3719"/><text fill="#000000" font-family="sans-serif" font-size="13" lengthAdjust="spacing" textLength="139.0221" x="654.6754" y="310.5629">create World(size, size)</text><path d="M572.2866,331.3719 L645.6266,331.3719 L645.6266,341.0779 L635.6266,351.0779 L572.2866,351.0779 L572.2866,331.3719 " fill="#EEEEEE" style="stroke:#000000;stroke-width:1.5;"/><rect fill="none" height="83.118" style="stroke:#000000;stroke-width:1.5;" width="717.3252" x="572.2866" y="331.3719"/><text fill="#000000" font-family="sans-serif" font-size="13" font-weight="bold" lengthAdjust="spacing" textLength="28.34" x="587.2866" y="346.2689">loop</text><text fill="#000000" font-family="sans-serif" font-size="11" font-weight="bold" lengthAdjust="spacing" textLength="98.7463" x="660.6266" y="345.1308">[preyCount times]</text><polygon fill="#181818" points="979.5667,370.784,989.5667,374.784,979.5667,378.784,983.5667,374.784" style="stroke:#181818;stroke-width:1.0;"/><line style="stroke:#181818;stroke-width:1.0;" x1="647.6754" x2="985.5667" y1="374.784" y2="374.784"/><text fill="#000000" font-family="sans-serif" font-size="13" lengthAdjust="spacing" textLength="293.3063" x="654.6754" y="368.975">addAnimal(new Prey(position, energy, maxAge))</text><polygon fill="#181818" points="1245.9679,402.49,1255.9679,406.49,1245.9679,410.49,1249.9679,406.49" style="stroke:#181818;stroke-width:1.0;"/><line style="stroke:#181818;stroke-width:1.0;" x1="1001.5667" x2="1251.9679" y1="406.49" y2="406.49"/><text fill="#000000" font-family="sans-serif" font-size="13" lengthAdjust="spacing" textLength="232.4012" x="1008.5667" y="400.681">create Prey(position, energy, maxAge)</text><path d="M572.2866,428.49 L645.6266,428.49 L645.6266,438.196 L635.6266,448.196 L572.2866,448.196 L572.2866,428.49 " fill="#EEEEEE" style="stroke:#000000;stroke-width:1.5;"/><rect fill="none" height="83.118" style="stroke:#000000;stroke-width:1.5;" width="879.3713" x="572.2866" y="428.49"/><text fill="#000000" font-family="sans-serif" font-size="13" font-weight="bold" lengthAdjust="spacing" textLength="28.34" x="587.2866" y="443.387">loop</text><text fill="#000000" font-family="sans-serif" font-size="11" font-weight="bold" lengthAdjust="spacing" textLength="122.5721" x="660.6266" y="442.2489">[predatorCount times]</text><polygon fill="#181818" points="979.5667,467.902,989.5667,471.902,979.5667,475.902,983.5667,471.902" style="stroke:#181818;stroke-width:1.0;"/><line style="stroke:#181818;stroke-width:1.0;" x1="647.6754" x2="985.5667" y1="471.902" y2="471.902"/><text fill="#000000" font-family="sans-serif" font-size="13" lengthAdjust="spacing" textLength="319.8913" x="654.6754" y="466.093">addAnimal(new Predator(position, energy, maxAge))</text><polygon fill="#181818" points="1393.699,499.608,1403.699,503.608,1393.699,507.608,1397.699,503.608" style="stroke:#181818;stroke-width:1.0;"/><line style="stroke:#181818;stroke-width:1.0;" x1="1001.5667" x2="1399.699" y1="503.608" y2="503.608"/><text fill="#000000" font-family="sans-serif" font-size="13" lengthAdjust="spacing" textLength="258.9862" x="1008.5667" y="497.799">create Predator(position, energy, maxAge)</text><polygon fill="#181818" points="625.6754,538.314,635.6754,542.314,625.6754,546.314,629.6754,542.314" style="stroke:#181818;stroke-width:1.0;"/><line style="stroke:#181818;stroke-width:1.0;" x1="38.3089" x2="631.6754" y1="542.314" y2="542.314"/><text fill="#000000" font-family="sans-serif" font-size="13" lengthAdjust="spacing" textLength="246.5192" x="45.3089" y="536.505">click "Save settings and start simulation"</text><line style="stroke:#181818;stroke-width:1.0;" x1="647.6754" x2="689.6754" y1="574.0201" y2="574.0201"/><line style="stroke:#181818;stroke-width:1.0;" x1="689.6754" x2="689.6754" y1="574.0201" y2="587.0201"/><line style="stroke:#181818;stroke-width:1.0;" x1="648.6754" x2="689.6754" y1="587.0201" y2="587.0201"/><polygon fill="#181818" points="658.6754,583.0201,648.6754,587.0201,658.6754,591.0201,654.6754,587.0201" style="stroke:#181818;stroke-width:1.0;"/><text fill="#000000" font-family="sans-serif" font-size="13" lengthAdjust="spacing" textLength="101.3481" x="654.6754" y="568.2111">startSimulation()</text><polygon fill="#181818" points="979.5667,614.7261,989.5667,618.7261,979.5667,622.7261,983.5667,618.7261" style="stroke:#181818;stroke-width:1.0;"/><line style="stroke:#181818;stroke-width:1.0;" x1="647.6754" x2="985.5667" y1="618.7261" y2="618.7261"/><text fill="#000000" font-family="sans-serif" font-size="13" lengthAdjust="spacing" textLength="29.029" x="654.6754" y="612.9171">tick()</text><path d="M572.2866,633.7261 L645.6266,633.7261 L645.6266,643.4321 L635.6266,653.4321 L572.2866,653.4321 L572.2866,633.7261 " fill="#EEEEEE" style="stroke:#000000;stroke-width:1.5;"/><rect fill="none" height="797.9082" style="stroke:#000000;stroke-width:1.5;" width="1104.5626" x="572.2866" y="633.7261"/><text fill="#000000" font-family="sans-serif" font-size="13" font-weight="bold" lengthAdjust="spacing" textLength="28.34" x="587.2866" y="648.6231">loop</text><text fill="#000000" font-family="sans-serif" font-size="11" font-weight="bold" lengthAdjust="spacing" textLength="121.6151" x="660.6266" y="647.485">[each simulation turn]</text><polygon fill="#181818" points="1541.8721,673.1381,1551.8721,677.1381,1541.8721,681.1381,1545.8721,677.1381" style="stroke:#181818;stroke-width:1.0;"/><line style="stroke:#181818;stroke-width:1.0;" x1="1001.5667" x2="1547.8721" y1="677.1381" y2="677.1381"/><text fill="#000000" font-family="sans-serif" font-size="13" lengthAdjust="spacing" textLength="152.8541" x="1008.5667" y="671.3291">for each animal: update()</text><path d="M939.8198,692.1381 L1002.1228,692.1381 L1002.1228,701.8441 L992.1228,711.8441 L939.8198,711.8441 L939.8198,692.1381 " fill="#EEEEEE" style="stroke:#000000;stroke-width:1.5;"/><rect fill="none" height="700.7901" style="stroke:#000000;stroke-width:1.5;" width="727.0295" x="939.8198" y="692.1381"/><text fill="#000000" font-family="sans-serif" font-size="13" font-weight="bold" lengthAdjust="spacing" textLength="17.303" x="954.8198" y="707.0351">alt</text><text fill="#000000" font-family="sans-serif" font-size="11" font-weight="bold" lengthAdjust="spacing" textLength="256.8481" x="1017.1228" y="705.897">[Animal is alive (energy &gt; 0 and age &lt; maxAge)]</text><line style="stroke:#181818;stroke-width:1.0;" x1="1553.8721" x2="1595.8721" y1="735.5501" y2="735.5501"/><line style="stroke:#181818;stroke-width:1.0;" x1="1595.8721" x2="1595.8721" y1="735.5501" y2="748.5501"/><line style="stroke:#181818;stroke-width:1.0;" x1="1554.8721" x2="1595.8721" y1="748.5501" y2="748.5501"/><polygon fill="#181818" points="1564.8721,744.5501,1554.8721,748.5501,1564.8721,752.5501,1560.8721,748.5501" style="stroke:#181818;stroke-width:1.0;"/><text fill="#000000" font-family="sans-serif" font-size="13" lengthAdjust="spacing" textLength="93.9771" x="1560.8721" y="729.7411">incrementAge()</text><path d="M949.8198,763.5501 L1012.1228,763.5501 L1012.1228,773.2562 L1002.1228,783.2562 L949.8198,783.2562 L949.8198,763.5501 " fill="#EEEEEE" style="stroke:#000000;stroke-width:1.5;"/><rect fill="none" height="541.9842" style="stroke:#000000;stroke-width:1.5;" width="619.0524" x="949.8198" y="763.5501"/><text fill="#000000" font-family="sans-serif" font-size="13" font-weight="bold" lengthAdjust="spacing" textLength="17.303" x="964.8198" y="778.4472">alt</text><text fill="#000000" font-family="sans-serif" font-size="11" font-weight="bold" lengthAdjust="spacing" textLength="108.8772" x="1027.1228" y="777.3091">[Animal is Predator]</text><line style="stroke:#181818;stroke-width:1.0;" x1="1405.699" x2="1447.699" y1="824.6682" y2="824.6682"/><line style="stroke:#181818;stroke-width:1.0;" x1="1447.699" x2="1447.699" y1="824.6682" y2="837.6682"/><line style="stroke:#181818;stroke-width:1.0;" x1="1406.699" x2="1447.699" y1="837.6682" y2="837.6682"/><polygon fill="#181818" points="1416.699,833.6682,1406.699,837.6682,1416.699,841.6682,1412.699,837.6682" style="stroke:#181818;stroke-width:1.0;"/><text fill="#000000" font-family="sans-serif" font-size="13" lengthAdjust="spacing" textLength="104.1561" x="1412.699" y="801.1532">move() (override)</text><text fill="#000000" font-family="sans-serif" font-size="13" lengthAdjust="spacing" textLength="75.608" x="1412.699" y="818.8592">&#8226; tracks Prey</text><line style="stroke:#181818;stroke-width:1.0;" x1="1405.699" x2="1447.699" y1="887.0802" y2="887.0802"/><line style="stroke:#181818;stroke-width:1.0;" x1="1447.699" x2="1447.699" y1="887.0802" y2="900.0802"/><line style="stroke:#181818;stroke-width:1.0;" x1="1406.699" x2="1447.699" y1="900.0802" y2="900.0802"/><polygon fill="#181818" points="1416.699,896.0802,1406.699,900.0802,1416.699,904.0802,1412.699,900.0802" style="stroke:#181818;stroke-width:1.0;"/><text fill="#000000" font-family="sans-serif" font-size="13" lengthAdjust="spacing" textLength="89.5181" x="1412.699" y="863.5652">eat() (override)</text><text fill="#000000" font-family="sans-serif" font-size="13" lengthAdjust="spacing" textLength="125.9571" x="1412.699" y="881.2712">&#8226; eats Prey if present</text><path d="M959.8198,915.0802 L1022.1228,915.0802 L1022.1228,924.7862 L1012.1228,934.7862 L959.8198,934.7862 L959.8198,915.0802 " fill="#EEEEEE" style="stroke:#000000;stroke-width:1.5;"/><rect fill="none" height="113.8241" style="stroke:#000000;stroke-width:1.5;" width="599.0524" x="959.8198" y="915.0802"/><text fill="#000000" font-family="sans-serif" font-size="13" font-weight="bold" lengthAdjust="spacing" textLength="17.303" x="974.8198" y="929.9772">alt</text><text fill="#000000" font-family="sans-serif" font-size="11" font-weight="bold" lengthAdjust="spacing" textLength="192.1576" x="1037.1228" y="928.8391">[energy &gt;= reproduction threshold]</text><line style="stroke:#181818;stroke-width:1.0;" x1="1405.699" x2="1447.699" y1="976.1983" y2="976.1983"/><line style="stroke:#181818;stroke-width:1.0;" x1="1447.699" x2="1447.699" y1="976.1983" y2="989.1983"/><line style="stroke:#181818;stroke-width:1.0;" x1="1406.699" x2="1447.699" y1="989.1983" y2="989.1983"/><polygon fill="#181818" points="1416.699,985.1983,1406.699,989.1983,1416.699,993.1983,1412.699,989.1983" style="stroke:#181818;stroke-width:1.0;"/><text fill="#000000" font-family="sans-serif" font-size="13" lengthAdjust="spacing" textLength="133.7311" x="1412.699" y="952.6833">reproduce() (override)</text><text fill="#000000" font-family="sans-serif" font-size="13" lengthAdjust="spacing" textLength="134.1731" x="1412.699" y="970.3893">&#8226; offspring is Predator</text><polygon fill="#181818" points="1012.5667,1016.9043,1002.5667,1020.9043,1012.5667,1024.9043,1008.5667,1020.9043" style="stroke:#181818;stroke-width:1.0;"/><line style="stroke:#181818;stroke-width:1.0;" x1="1006.5667" x2="1404.699" y1="1020.9043" y2="1020.9043"/><text fill="#000000" font-family="sans-serif" font-size="13" lengthAdjust="spacing" textLength="129.3631" x="1018.5667" y="1015.0953">addAnimal(offspring)</text><line style="stroke:#000000;stroke-width:1.0;stroke-dasharray:2.0,2.0;" x1="949.8198" x2="1568.8721" y1="1036.9043" y2="1036.9043"/><text fill="#000000" font-family="sans-serif" font-size="11" font-weight="bold" lengthAdjust="spacing" textLength="85.0514" x="954.8198" y="1048.6632">[Animal is Prey]</text><line style="stroke:#181818;stroke-width:1.0;" x1="1257.9679" x2="1299.9679" y1="1094.2982" y2="1094.2982"/><line style="stroke:#181818;stroke-width:1.0;" x1="1299.9679" x2="1299.9679" y1="1094.2982" y2="1107.2982"/><line style="stroke:#181818;stroke-width:1.0;" x1="1258.9679" x2="1299.9679" y1="1107.2982" y2="1107.2982"/><polygon fill="#181818" points="1268.9679,1103.2982,1258.9679,1107.2982,1268.9679,1111.2982,1264.9679,1107.2982" style="stroke:#181818;stroke-width:1.0;"/><text fill="#000000" font-family="sans-serif" font-size="13" lengthAdjust="spacing" textLength="104.1561" x="1264.9679" y="1070.7832">move() (override)</text><text fill="#000000" font-family="sans-serif" font-size="13" lengthAdjust="spacing" textLength="120.3021" x="1264.9679" y="1088.4892">&#8226; escapes Predators</text><line style="stroke:#181818;stroke-width:1.0;" x1="1257.9679" x2="1299.9679" y1="1156.7103" y2="1156.7103"/><line style="stroke:#181818;stroke-width:1.0;" x1="1299.9679" x2="1299.9679" y1="1156.7103" y2="1169.7103"/><line style="stroke:#181818;stroke-width:1.0;" x1="1258.9679" x2="1299.9679" y1="1169.7103" y2="1169.7103"/><polygon fill="#181818" points="1268.9679,1165.7103,1258.9679,1169.7103,1268.9679,1173.7103,1264.9679,1169.7103" style="stroke:#181818;stroke-width:1.0;"/><text fill="#000000" font-family="sans-serif" font-size="13" lengthAdjust="spacing" textLength="89.5181" x="1264.9679" y="1133.1952">eat() (override)</text><text fill="#000000" font-family="sans-serif" font-size="13" lengthAdjust="spacing" textLength="70.304" x="1264.9679" y="1150.9012">&#8226; eats grass</text><path d="M959.8198,1184.7103 L1022.1228,1184.7103 L1022.1228,1194.4163 L1012.1228,1204.4163 L959.8198,1204.4163 L959.8198,1184.7103 " fill="#EEEEEE" style="stroke:#000000;stroke-width:1.5;"/><rect fill="none" height="113.8241" style="stroke:#000000;stroke-width:1.5;" width="450.8792" x="959.8198" y="1184.7103"/><text fill="#000000" font-family="sans-serif" font-size="13" font-weight="bold" lengthAdjust="spacing" textLength="17.303" x="974.8198" y="1199.6073">alt</text><text fill="#000000" font-family="sans-serif" font-size="11" font-weight="bold" lengthAdjust="spacing" textLength="192.1576" x="1037.1228" y="1198.4692">[energy &gt;= reproduction threshold]</text><line style="stroke:#181818;stroke-width:1.0;" x1="1257.9679" x2="1299.9679" y1="1245.8283" y2="1245.8283"/><line style="stroke:#181818;stroke-width:1.0;" x1="1299.9679" x2="1299.9679" y1="1245.8283" y2="1258.8283"/><line style="stroke:#181818;stroke-width:1.0;" x1="1258.9679" x2="1299.9679" y1="1258.8283" y2="1258.8283"/><polygon fill="#181818" points="1268.9679,1254.8283,1258.9679,1258.8283,1268.9679,1262.8283,1264.9679,1258.8283" style="stroke:#181818;stroke-width:1.0;"/><text fill="#000000" font-family="sans-serif" font-size="13" lengthAdjust="spacing" textLength="133.7311" x="1264.9679" y="1222.3133">reproduce() (override)</text><text fill="#000000" font-family="sans-serif" font-size="13" lengthAdjust="spacing" textLength="107.5881" x="1264.9679" y="1240.0193">&#8226; offspring is Prey</text><polygon fill="#181818" points="1012.5667,1286.5343,1002.5667,1290.5343,1012.5667,1294.5343,1008.5667,1290.5343" style="stroke:#181818;stroke-width:1.0;"/><line style="stroke:#181818;stroke-width:1.0;" x1="1006.5667" x2="1256.9679" y1="1290.5343" y2="1290.5343"/><text fill="#000000" font-family="sans-serif" font-size="13" lengthAdjust="spacing" textLength="129.3631" x="1018.5667" y="1284.7253">addAnimal(offspring)</text><line style="stroke:#000000;stroke-width:1.0;stroke-dasharray:2.0,2.0;" x1="939.8198" x2="1666.8492" y1="1313.5343" y2="1313.5343"/><text fill="#000000" font-family="sans-serif" font-size="11" font-weight="bold" lengthAdjust="spacing" textLength="245.1882" x="944.8198" y="1325.2932">[Animal dies (energy &lt;= 0 or age &gt;= maxAge)]</text><polygon fill="#181818" points="1012.5667,1349.2222,1002.5667,1353.2222,1012.5667,1357.2222,1008.5667,1353.2222" style="stroke:#181818;stroke-width:1.0;"/><line style="stroke:#181818;stroke-width:1.0;" x1="1006.5667" x2="1552.8721" y1="1353.2222" y2="1353.2222"/><text fill="#000000" font-family="sans-serif" font-size="13" lengthAdjust="spacing" textLength="26.481" x="1018.5667" y="1347.4132">die()</text><polygon fill="#181818" points="1541.8721,1380.9282,1551.8721,1384.9282,1541.8721,1388.9282,1545.8721,1384.9282" style="stroke:#181818;stroke-width:1.0;"/><line style="stroke:#181818;stroke-width:1.0;" x1="1001.5667" x2="1547.8721" y1="1384.9282" y2="1384.9282"/><text fill="#000000" font-family="sans-serif" font-size="13" lengthAdjust="spacing" textLength="119.2621" x="1008.5667" y="1379.1192">removeAnimal(this)</text><polygon fill="#181818" points="979.5667,1419.6343,989.5667,1423.6343,979.5667,1427.6343,983.5667,1423.6343" style="stroke:#181818;stroke-width:1.0;"/><line style="stroke:#181818;stroke-width:1.0;" x1="647.6754" x2="985.5667" y1="1423.6343" y2="1423.6343"/><text fill="#000000" font-family="sans-serif" font-size="13" lengthAdjust="spacing" textLength="96.6551" x="654.6754" y="1417.8253">tick() (next turn)</text><path d="M10,1445.6343 L72.303,1445.6343 L72.303,1455.3403 L62.303,1465.3403 L10,1465.3403 L10,1445.6343 " fill="#EEEEEE" style="stroke:#000000;stroke-width:1.5;"/><rect fill="none" height="51.412" style="stroke:#000000;stroke-width:1.5;" width="703.0642" x="10" y="1445.6343"/><text fill="#000000" font-family="sans-serif" font-size="13" font-weight="bold" lengthAdjust="spacing" textLength="17.303" x="25" y="1460.5313">alt</text><text fill="#000000" font-family="sans-serif" font-size="11" font-weight="bold" lengthAdjust="spacing" textLength="117.2811" x="87.303" y="1459.3932">[all animals are dead]</text><polygon fill="#181818" points="49.3089,1485.0463,39.3089,1489.0463,49.3089,1493.0463,45.3089,1489.0463" style="stroke:#181818;stroke-width:1.0;"/><line style="stroke:#181818;stroke-width:1.0;" x1="43.3089" x2="636.6754" y1="1489.0463" y2="1489.0463"/><text fill="#000000" font-family="sans-serif" font-size="13" lengthAdjust="spacing" textLength="227.1102" x="55.3089" y="1483.2373">Display message "Simulation ended!"</text><!--SRC=[hLRDRjim3BxhARYSP203TWxQ0i5s7L2W67RPHR0OHwWiUvASrJljMVPeUv9Hyf-SnCvQp0V7viz7yYD5nokl4PxmUuCcH_YaH655oPZ8VMNXYqFBMBZ3-mVuB9I17PJqmuKjNCQYX3HFNbY_hslIvXQ5nr72im2bJgcCiT4- -AgoqSAhoZmAWpg1c2kuFogNeitLKvffCbhbpx29aiHXSoi3XpuL4YFeqJhkr4_SGcsn_LWrniT7AOYf-9gnSoG2_rfPBQUYuckF4-v9GL75cAwgUWe1NfNe6D2r0Ywat1jL2iqD_e17SkPrvLImtG8Qj4MxfRwzx0lCiWZMUH94C9xIMtTbQ984fyBVc6G4U4sYqM6Mx0s8Bc69vnoFet8vU_t4Y1E6AV3A50w4aU3Y3BbaXgwKUcMIWjiavgipuYasNvW8gk6OX0VVM3Cdg2ENO0v4KZGNKRA3fYQUa92ZWz1-i5LKcrPKAk-8WmVu4AiL1SBTo2BqL- -LnbA6cb6YyMGu1BWCCdHgL8ThREYykMLr8YJWz6EjafXzCtz-_GPlHVuSaTf_GQ41kG92qWu2r26CiAF4PsWXxO6AUx1OsqesUKVuaUoF5JK4pgw550RlQzLKXuEhBGtN8Zldm9UdQCJ8PevXvCTdxN3UXWloscG9B52FBXSrJdcwDOmLukdBujn_eJiD-1gQsqMmjz4Rjiivpr8HLSDvkhkd0qKD3EU9Abm-K4DyykQJ_l9iqs6Z6liKko_YO9oikKxFPZdUt3j0U_d5nyMok3X3muJM_MQXxM4nn9LB4UAYtT7V2bThqG9z9LoWOZEPXWHHljl4Y7y1]--></g></svg>